<svg width="321" height="327" viewBox="0 0 321 327" fill="none" xmlns="http://www.w3.org/2000/svg">
<path d="M62.3825 106.711C62.3825 106.711 49.1407 113.01 48.0216 126.218C46.9026 139.425 80.4002 175.634 80.4002 175.634L172.273 117.83L138.563 66.9641L62.3825 106.711Z" fill="#C7DCF9"/>
<path d="M84.2959 117.645C84.2959 117.645 74.959 128.622 72.6505 140.225C70.342 151.829 71.3184 172.207 72.3447 179.795C88.244 192.634 146.614 177.041 146.614 177.041L199.096 106.14C199.096 106.14 188.195 88.4457 182.95 83.7468C177.705 79.0479 161.382 73.8661 143.533 82.4861C133.796 98.4937 84.2959 117.645 84.2959 117.645Z" fill="#E1ECFF"/>
<g style="mix-blend-mode:multiply">
<path d="M80.1774 123.273C80.1774 123.273 102.788 128.883 127.052 117.58C151.316 106.276 154.001 78.866 154.001 78.866L143.522 82.491L84.2958 117.645L80.1774 123.273Z" fill="#E1ECFF"/>
</g>
<path d="M175.881 200.342C175.881 200.342 203.875 198.635 211.873 200.114C219.872 201.592 243.86 247.289 252.775 251.218C261.69 255.147 268.499 247.163 277.612 240.961C286.724 234.759 294.965 227.443 295.048 224.615C295.13 221.788 290.344 210.836 286.706 208.806C283.068 206.776 272.938 207.299 267.773 211.12C258.385 190.047 244.984 159.296 234.351 155.656C223.719 152.016 192.245 152.065 192.245 152.065L175.881 200.342Z" fill="#E1ECFF"/>
<g style="mix-blend-mode:multiply" opacity="0.51">
<path d="M203.924 177.734C203.924 177.734 226.876 178.69 233.743 186.745C240.609 194.799 256.58 245.84 270.624 246.127C271.981 262.918 243.477 270.938 243.477 270.938L168.974 198.601L203.924 177.734Z" fill="#E1ECFF"/>
</g>
<path d="M100.415 201.163C100.415 201.163 120.055 236.091 136.325 244.882C152.594 253.674 180.814 250.97 189.048 256.891C197.281 262.811 197.721 293.889 206.069 301.566C214.417 309.244 225.724 313.53 235.913 311.914C246.103 310.298 253.974 304.827 253.767 300.207C253.56 295.586 252.878 291.612 247.894 289.476C242.91 287.34 235.986 285.749 235.5 282.9C235.015 280.051 226.619 236.739 223.557 225.019C220.496 213.299 201.824 197.97 178.635 191.177C155.997 174.68 123.604 184.586 123.604 184.586L100.415 201.163Z" fill="#E1ECFF"/>
<g style="mix-blend-mode:multiply">
<path d="M106.073 210.481C106.073 210.481 125.888 210.157 143.097 201.17C138.491 183.353 127.675 178.728 127.675 178.728L100.416 201.163L106.073 210.481Z" fill="#E1ECFF"/>
</g>
<path d="M120.688 20.175C104.664 12.9391 72.0646 12.3321 53.7309 38.4942C35.3973 64.6564 47.1043 89.717 56.3193 101.13C65.9703 113.109 97.525 130.283 128.603 110.059C159.682 89.834 159.569 37.7393 120.688 20.175Z" fill="#E1ECFF"/>
<path d="M119.05 35.5282C133.008 37.8829 143.231 56.5559 139.862 75.3216C136.493 94.0873 121.436 107.568 103.605 108.871C85.7732 110.174 67.2134 99.1898 65.7734 76.4073C64.3932 54.513 88.7389 30.4175 119.05 35.5282Z" fill="#1C3177"/>
<g style="mix-blend-mode:multiply">
<path d="M89.1948 182.352C106.533 172.838 91.865 154.775 109.416 149.258C133.166 151.016 139.592 149.377 139.592 149.377C139.592 149.377 97.2535 191.938 89.1948 182.352Z" fill="#E1ECFF"/>
</g>
<path d="M100.686 130.617L135.642 205.255L177.713 201.409L214.617 174.408L223.75 138.773L190.222 56.9923L179.326 97.0712L146.143 127.322L100.686 130.617Z" fill="#FF97C9"/>
<path d="M89.1949 182.352C99.0164 180.886 103.613 174.116 106.413 171.062C107.839 169.502 107.449 168.246 106.398 164.097C105.346 159.947 107.72 155.458 111.237 153.367C113.601 158.614 116.127 159.469 118.006 159.089C119.886 158.709 121.07 147.246 127.279 146.927C133.488 146.609 139.016 154.481 140.12 158.522C141.225 162.564 138.008 174.522 133.535 183.064C129.063 191.606 122.657 202.24 106.91 206.493C91.1622 210.747 81.5372 203.208 75.6125 193.257C73.6133 189.899 72.653 185.136 72.3479 179.778C72.3479 179.778 76.2394 184.255 89.1949 182.352Z" fill="#E1ECFF"/>
<path d="M201.769 85.1589C201.769 85.1589 204.086 91.2129 202.968 93.7081C201.85 96.2033 200.24 98.3137 199.168 101.485C198.095 104.657 200.776 116.157 206.549 117.773C212.322 119.39 216.635 113.849 217.919 110.724C219.204 107.598 217.844 99.711 215.266 94.3218C212.687 88.9325 208.21 84.2903 201.769 85.1589Z" fill="#E1ECFF"/>
<path d="M203.071 7.91043L204.508 10.3861C204.594 10.5361 204.716 10.6629 204.862 10.7553C205.009 10.8477 205.175 10.903 205.348 10.9163L208.204 11.1256C208.404 11.1406 208.595 11.2113 208.757 11.3296C208.918 11.448 209.043 11.6092 209.118 11.7951C209.192 11.981 209.213 12.184 209.178 12.3811C209.143 12.5783 209.053 12.7616 208.919 12.9103L207.009 15.049C206.893 15.1778 206.81 15.3331 206.768 15.5013C206.725 15.6694 206.724 15.8455 206.765 16.0141L207.434 18.7827C207.481 18.9768 207.473 19.1803 207.411 19.3701C207.348 19.5599 207.234 19.7285 207.081 19.8567C206.928 19.985 206.742 20.0678 206.544 20.0959C206.346 20.124 206.144 20.0961 205.962 20.0155L203.339 18.8579C203.181 18.7872 203.008 18.7564 202.835 18.7681C202.662 18.7798 202.494 18.8336 202.347 18.9248L199.903 20.4241C199.733 20.5296 199.536 20.5852 199.336 20.5846C199.136 20.5839 198.939 20.527 198.77 20.4204C198.6 20.3137 198.464 20.1616 198.376 19.9813C198.289 19.801 198.254 19.5997 198.275 19.4004L198.57 16.5668C198.588 16.3942 198.563 16.2199 198.498 16.0589C198.434 15.898 198.331 15.7553 198.198 15.6432L196.019 13.7804C195.866 13.651 195.752 13.4814 195.691 13.2907C195.63 13.1001 195.623 12.8961 195.672 12.7019C195.721 12.5077 195.823 12.3311 195.967 12.1922C196.112 12.0532 196.292 11.9575 196.488 11.9158L199.29 11.3249C199.459 11.2885 199.617 11.2113 199.749 11.1001C199.882 10.9889 199.985 10.847 200.051 10.6867L201.142 8.04051C201.218 7.8537 201.345 7.69196 201.508 7.57378C201.672 7.4556 201.865 7.38574 202.066 7.37218C202.267 7.35861 202.468 7.40189 202.646 7.49706C202.823 7.59224 202.971 7.73549 203.071 7.91043Z" fill="#FEC272"/>
<path d="M85.9727 288.053L87.178 290.13C87.25 290.256 87.3521 290.362 87.4751 290.44C87.5981 290.517 87.7383 290.563 87.8832 290.573L90.2792 290.757C90.4463 290.77 90.6063 290.829 90.7413 290.928C90.8763 291.028 90.9809 291.163 91.0433 291.318C91.1056 291.474 91.1232 291.643 91.0941 291.808C91.065 291.973 90.9903 292.127 90.8785 292.252L89.2747 294.04C89.1762 294.149 89.1061 294.281 89.0709 294.424C89.0356 294.566 89.0362 294.715 89.0726 294.858L89.632 297.192C89.6705 297.354 89.663 297.525 89.6103 297.684C89.5576 297.843 89.4617 297.984 89.3334 298.091C89.2051 298.199 89.0494 298.268 88.8838 298.292C88.7181 298.317 88.5491 298.294 88.3954 298.228L86.1994 297.254C86.0664 297.196 85.9213 297.171 85.7764 297.18C85.6315 297.19 85.4911 297.235 85.3671 297.31L83.3291 298.561C83.1861 298.649 83.0212 298.696 82.8532 298.695C82.6852 298.694 82.5208 298.646 82.3787 298.556C82.2365 298.467 82.1224 298.339 82.0493 298.188C81.9761 298.036 81.9468 297.868 81.9647 297.701L82.2056 295.313C82.2206 295.167 82.1999 295.019 82.1452 294.883C82.0905 294.746 82.0034 294.625 81.8915 294.53L80.0661 292.973C79.9386 292.864 79.844 292.722 79.793 292.563C79.742 292.403 79.7366 292.232 79.7775 292.07C79.8184 291.907 79.9039 291.76 80.0244 291.643C80.1448 291.527 80.2955 291.446 80.4592 291.411L82.8049 290.907C82.9475 290.877 83.0806 290.813 83.1927 290.72C83.3048 290.627 83.3925 290.508 83.4482 290.373L84.3636 288.153C84.4282 287.998 84.5348 287.864 84.6715 287.767C84.8082 287.67 84.9694 287.612 85.1369 287.602C85.3044 287.591 85.4715 287.628 85.6192 287.708C85.767 287.787 85.8894 287.907 85.9727 288.053Z" fill="#FEC272"/>
<g style="mix-blend-mode:soft-light" opacity="0.48">
<path d="M108.611 59.3445C118.313 56.5098 125.364 51.4301 124.361 47.9987C123.359 44.5673 114.682 44.0835 104.98 46.9182C95.2794 49.7528 88.2279 54.8325 89.2305 58.2639C90.2332 61.6954 98.9103 62.1791 108.611 59.3445Z" fill="white"/>
</g>
<g style="mix-blend-mode:multiply">
<path d="M138.614 170.168C138.614 170.168 126.603 160.809 124.55 160.947C122.497 161.086 117.571 169.457 118.947 171.495C120.322 173.532 127.121 180.052 134.215 181.72C136.178 177.271 138.614 170.168 138.614 170.168Z" fill="#E1ECFF"/>
</g>
<g style="mix-blend-mode:multiply" opacity="0.5">
<path d="M146.143 127.322L177.714 201.409L214.618 174.408L179.327 97.0712L146.143 127.322Z" fill="#FF97C9"/>
</g>
<g style="mix-blend-mode:multiply">
<path d="M226.804 239.359C223.061 242.911 218.783 245.854 214.127 248.08C209.758 250.111 208.48 253.751 210.275 260.15C212.069 266.549 213.512 276.617 216.492 279.093C219.473 281.569 229.013 279.503 233.589 272.972C231.201 260.873 226.804 239.359 226.804 239.359Z" fill="#E1ECFF"/>
</g>
<g style="mix-blend-mode:multiply">
<path d="M248.45 171.427C248.45 171.427 243.013 174.245 243.808 178.103C244.602 181.96 251.594 200.393 253.965 201.937C256.336 203.482 262.811 200.022 262.811 200.022C254.643 181.054 248.45 171.427 248.45 171.427Z" fill="#E1ECFF"/>
</g>
<path d="M15.0838 232.403C10.0074 223.468 23.8539 212.605 36.2504 212.485C48.6468 212.364 54.6055 223.414 59.2659 227.373C68.9997 235.632 69.2972 244.334 63.2227 248.494C57.1483 252.654 21.8018 244.221 15.0838 232.403Z" fill="#99ADF9"/>
<path d="M254.546 72.5312C250.733 69.621 253.438 54.5498 261.711 50.5068C269.984 46.4639 280.804 49.5448 283.462 55.3387C286.12 61.1326 262.365 78.4916 254.546 72.5312Z" fill="#99ADF9"/>
<path d="M296.769 77.6503C295.102 80.4036 294.378 87.9732 298.362 89.043C302.345 90.1129 304.77 82.2116 303.131 78.2945C301.493 74.3773 297.883 75.8106 296.769 77.6503Z" fill="#99ADF9"/>
<path opacity="0.44" d="M295.472 16.7079C292.659 18.2723 288.266 24.4774 291.196 27.387C294.126 30.2966 300.147 24.6408 300.671 20.4291C301.195 16.2174 297.351 15.6647 295.472 16.7079Z" fill="#99ADF9"/>
<path opacity="0.44" d="M38.1352 269.883C35.4874 268.051 27.9821 266.849 26.6622 270.761C25.3423 274.672 33.0781 277.563 37.0776 276.192C41.0771 274.821 39.898 271.106 38.1352 269.883Z" fill="#99ADF9"/>
<g style="mix-blend-mode:multiply" opacity="0.64">
<path d="M56.9059 224.988C52.493 226.129 53.4828 230.078 55.1596 233.603C56.8363 237.127 61.9477 237.82 65.2818 234.271C62.6024 228.932 56.9059 224.988 56.9059 224.988Z" fill="#99ADF9"/>
</g>
<g style="mix-blend-mode:multiply" opacity="0.64">
<path d="M30.806 220.69C27.6289 221.262 25.3324 226.072 27.8427 229.677C30.3529 233.282 34.839 235.729 37.2308 234.538C39.6225 233.348 39.6612 227.782 37.6449 224.349C35.6287 220.915 33.8599 220.138 30.806 220.69Z" fill="#99ADF9"/>
</g>
<g style="mix-blend-mode:multiply" opacity="0.64">
<path d="M273.267 52.935C271.548 53.6137 269.896 55.6345 270.19 57.6767C270.485 59.7189 272.398 61.3906 274.327 61.0154C276.255 60.6401 277.7 57.3873 277.147 55.1575C276.595 52.9277 274.579 52.4205 273.267 52.935Z" fill="#99ADF9"/>
</g>
<g style="mix-blend-mode:multiply" opacity="0.64">
<path d="M254.934 58.1912C254.934 58.1912 257.497 60.4301 257.281 63.1821C257.064 65.934 252.91 65.961 252.91 65.961C252.91 65.961 253.213 61.2738 254.934 58.1912Z" fill="#99ADF9"/>
</g>
</svg>
